<svg xmlns="http://www.w3.org/2000/svg" viewBox="0 0 64 64">
  <defs>
    <linearGradient id="bg" x1="8" y1="6" x2="58" y2="60" gradientUnits="userSpaceOnUse">
      <stop stop-color="#0f2a32"/>
      <stop offset="0.56" stop-color="#111b2a"/>
      <stop offset="1" stop-color="#0a121f"/>
    </linearGradient>
    <linearGradient id="tileA" x1="10" y1="10" x2="22" y2="22">
      <stop stop-color="#3b4652"/>
      <stop offset="1" stop-color="#2a323d"/>
    </linearGradient>
    <linearGradient id="tileB" x1="0" y1="0" x2="1" y2="1">
      <stop stop-color="#42d7b5"/>
      <stop offset="1" stop-color="#1d4d53"/>
    </linearGradient>
    <linearGradient id="tileC" x1="0" y1="0" x2="1" y2="1">
      <stop stop-color="#f7c948"/>
      <stop offset="1" stop-color="#37352a"/>
    </linearGradient>
    <linearGradient id="tileD" x1="0" y1="0" x2="1" y2="1">
      <stop stop-color="#71a7ff"/>
      <stop offset="1" stop-color="#243348"/>
    </linearGradient>
  </defs>
  <rect width="64" height="64" rx="14" fill="url(#bg)"/>
  <path d="M0 12h64M0 28h64M0 44h64M16 0v64M32 0v64M48 0v64" stroke="#ffffff" stroke-opacity=".035"/>
  <rect x="5" y="8" width="54" height="48" rx="7" fill="#ffffff" fill-opacity=".065" stroke="#ffffff" stroke-opacity=".16"/>
  <g stroke="#ffffff" stroke-opacity=".14" stroke-width="1">
    <rect x="10" y="13" width="10" height="8" rx="2" fill="url(#tileA)"/>
    <rect x="24" y="13" width="10" height="8" rx="2" fill="url(#tileB)"/>
    <rect x="38" y="13" width="10" height="8" rx="2" fill="url(#tileC)"/>
    <rect x="52" y="13" width="6" height="8" rx="2" fill="url(#tileD)"/>
    <rect x="10" y="26" width="10" height="8" rx="2" fill="url(#tileA)"/>
    <rect x="24" y="26" width="10" height="8" rx="2" fill="url(#tileB)"/>
    <rect x="38" y="26" width="10" height="8" rx="2" fill="url(#tileD)"/>
    <rect x="52" y="26" width="6" height="8" rx="2" fill="url(#tileC)"/>
    <rect x="10" y="39" width="10" height="8" rx="2" fill="url(#tileA)"/>
    <rect x="24" y="39" width="10" height="8" rx="2" fill="url(#tileB)"/>
    <rect x="38" y="39" width="10" height="8" rx="2" fill="url(#tileD)"/>
    <rect x="52" y="39" width="6" height="8" rx="2" fill="url(#tileC)"/>
  </g>
</svg>
